<?xml version="1.0" standalone="no"?>
<!DOCTYPE svg PUBLIC "-//W3C//DTD SVG 20010904//EN"
 "http://www.w3.org/TR/2001/REC-SVG-20010904/DTD/svg10.dtd">
<svg version="1.0" xmlns="http://www.w3.org/2000/svg"
 width="500.000000pt" height="500.000000pt" viewBox="0 0 500.000000 500.000000"
 preserveAspectRatio="xMidYMid meet">
<metadata>
Created by potrace 1.14, written by Peter Selinger 2001-2017
</metadata>
<g transform="translate(0.000000,500.000000) scale(0.100000,-0.100000)"
fill="#000000" stroke="none">
<path d="M2233 4250 c-129 -22 -241 -49 -274 -66 -15 -7 -29 -10 -33 -7 -3 4
-6 1 -6 -6 0 -7 -3 -10 -8 -7 -4 2 -23 -3 -42 -11 -19 -9 -40 -17 -47 -18 -16
-4 -252 -121 -293 -146 -59 -36 -212 -154 -279 -216 -59 -54 -176 -187 -214
-243 -9 -14 -34 -50 -54 -80 -43 -62 -75 -128 -65 -133 4 -2 60 -3 124 -3 65
1 118 -2 118 -5 0 -7 46 -29 60 -29 6 0 10 6 10 13 1 23 65 86 116 111 56 28
110 28 169 0 63 -30 61 -41 -8 -41 -74 0 -130 -25 -178 -78 l-32 -35 -208 0
c-228 0 -224 1 -253 -63 -27 -62 -72 -193 -80 -234 -2 -10 -9 -36 -14 -58 -6
-22 -13 -62 -17 -90 -3 -27 -10 -77 -14 -110 -12 -81 -12 -288 -1 -366 6 -35
12 -84 15 -109 18 -143 66 -301 138 -450 17 -36 31 -67 32 -70 8 -37 155 -271
205 -325 15 -16 34 -41 43 -53 17 -26 124 -138 181 -189 20 -18 37 -39 37 -48
1 -8 2 -18 3 -22 1 -5 5 -22 9 -38 11 -43 47 -79 111 -109 62 -29 100 -37 201
-41 46 -1 83 -9 110 -23 22 -11 60 -26 85 -33 25 -7 50 -16 55 -20 12 -8 158
-44 240 -58 64 -11 214 -24 255 -21 14 1 31 1 38 1 6 -1 18 -1 25 -2 39 -2
272 13 281 19 6 3 20 7 31 8 76 5 275 64 375 111 132 61 242 120 297 158 35
25 66 45 68 45 6 0 50 36 82 68 13 12 26 22 29 22 10 0 148 143 189 195 21 28
44 55 50 60 17 16 75 105 75 116 0 5 4 9 9 9 5 0 16 15 25 33 9 17 30 56 46
85 16 28 26 52 22 52 -4 0 -2 4 3 8 22 16 98 195 88 206 -4 3 -2 6 4 6 6 0 13
10 16 22 3 13 15 55 26 93 12 39 23 87 26 109 3 21 7 41 10 45 4 8 9 35 20
111 9 57 9 362 1 415 -16 103 -32 183 -48 240 -15 52 -13 46 -25 76 -6 14 -16
43 -23 65 -6 21 -18 48 -26 58 -13 18 -15 18 -58 2 -45 -17 -89 -51 -98 -77
-4 -10 -14 -5 -37 19 -23 25 -29 37 -22 50 20 38 75 72 131 82 39 6 50 29 25
54 -9 9 -14 16 -11 16 17 0 -93 169 -192 295 -63 79 -207 226 -267 270 -22 17
-48 37 -58 46 -9 9 -30 22 -45 30 -15 8 -29 16 -32 19 -25 28 -285 165 -326
172 -10 2 -21 6 -24 9 -17 19 -269 92 -365 106 -22 3 -60 9 -85 13 -80 15
-337 9 -447 -10z m304 -216 c62 -5 110 -18 158 -42 53 -26 95 -57 95 -69 0 -6
4 -13 8 -15 9 -4 52 -63 52 -72 0 -9 -28 -7 -32 2 -5 12 -132 70 -192 87 -67
20 -161 26 -213 15 -21 -5 -51 -11 -68 -13 -16 -3 -48 -13 -70 -22 -22 -10
-44 -19 -50 -21 -5 -1 -27 -9 -48 -18 -21 -9 -42 -14 -47 -11 -6 4 -10 0 -10
-7 0 -9 -3 -9 -10 2 -13 20 63 90 143 131 54 28 204 70 219 62 4 -2 33 -6 65
-9z m-600 -36 c14 -24 11 -38 -10 -53 -20 -14 -23 -14 -39 6 -13 16 -15 26 -8
40 12 22 45 25 57 7z m-151 -112 c-8 -31 -40 -35 -56 -7 -12 24 -4 49 18 54
27 6 46 -18 38 -47z m-182 -52 c11 -29 6 -45 -16 -53 -25 -10 -48 3 -48 26 0
36 52 58 64 27z m1894 -68 c9 -37 16 -44 61 -63 31 -13 51 -28 51 -37 0 -17
-36 -35 -75 -38 -19 -2 -26 -12 -39 -60 -16 -58 -32 -71 -54 -45 -6 7 -13 24
-16 37 -8 47 -18 59 -49 65 -80 15 -83 55 -7 82 43 15 49 21 55 52 4 20 11 44
16 53 15 27 43 4 57 -46z m-1465 27 c3 -5 -10 -37 -27 -73 -62 -126 -75 -183
-78 -325 0 -49 -3 -93 -5 -97 -2 -4 -23 3 -46 16 l-42 24 0 129 c0 118 2 132
27 184 35 73 154 171 171 142z m966 -17 c36 -19 99 -91 118 -136 10 -24 16
-77 18 -168 l2 -133 -36 -24 c-20 -13 -40 -19 -45 -14 -5 4 -10 48 -11 96 -3
86 -10 148 -21 188 -8 27 -57 139 -64 145 -7 7 -30 48 -30 55 0 10 42 5 69 -9z
m719 -178 c17 -17 15 -46 -5 -56 -37 -19 -76 24 -47 52 19 19 36 20 52 4z
m-2350 -31 c30 -27 28 -34 -10 -43 -18 -3 -52 -16 -75 -27 l-43 -21 -30 29
c-16 15 -27 31 -25 35 7 12 78 44 105 48 13 2 26 5 29 7 5 6 21 -4 49 -28z
m915 -319 c57 -30 78 -95 49 -153 -21 -42 -38 -56 -79 -65 -69 -16 -137 32
-143 100 -5 60 2 74 52 116 29 23 80 24 121 2z m512 5 c77 -42 85 -167 14
-212 -35 -21 -113 -16 -143 10 -62 54 -56 157 12 195 40 22 85 24 117 7z m982
-177 c15 -4 39 -15 52 -25 23 -18 23 -18 -47 -24 -77 -6 -108 -21 -159 -78
-26 -29 -38 -35 -68 -34 -19 1 -38 4 -41 7 -3 3 5 23 16 44 51 92 143 133 247
110z m-2580 -78 c19 -32 1 -63 -33 -56 -33 6 -28 68 5 68 11 0 23 -6 28 -12z
m458 -11 c7 -8 16 -31 19 -52 6 -38 19 -55 43 -55 27 0 63 -24 63 -42 0 -19
-33 -37 -75 -40 -19 -2 -24 -10 -29 -47 -6 -46 -20 -71 -41 -71 -15 0 -35 37
-39 73 -2 23 -26 64 -26 45 0 -13 -75 21 -78 35 -4 21 42 50 76 49 25 0 27 3
27 36 -1 23 6 45 19 60 23 26 23 26 41 9z m1835 -56 c0 -6 -166 -3 -185 3 -5
2 12 10 40 18 44 13 55 13 97 0 26 -9 48 -18 48 -21z m-2496 13 c9 -8 16 -18
16 -22 -1 -39 -63 -42 -68 -3 -6 37 26 52 52 25z m191 -229 c44 -11 110 -51
145 -88 35 -36 76 -117 83 -162 3 -16 8 -41 11 -55 5 -23 8 -38 23 -115 3 -16
6 -34 8 -40 1 -5 5 -28 9 -50 8 -40 33 -167 43 -215 3 -14 6 -32 7 -40 1 -8 5
-26 9 -40 3 -14 9 -43 12 -64 3 -21 8 -49 11 -62 5 -19 1 -24 -23 -29 -15 -4
-34 -8 -40 -11 -7 -2 -13 -2 -13 -1 0 1 -5 29 -11 62 -5 33 -12 71 -14 85 -2
14 -7 36 -9 50 -14 64 -25 124 -31 165 -2 11 -10 52 -18 90 -9 39 -18 86 -21
105 -15 95 -36 180 -52 211 -72 142 -252 177 -363 70 -44 -41 -56 -84 -56
-193 0 -58 -3 -109 -7 -113 -11 -11 -55 24 -68 54 -13 32 -15 114 -5 163 34
157 212 265 370 223z m687 -50 c15 -20 8 -46 -14 -54 -26 -10 -48 3 -48 28 0
33 44 51 62 26z m358 -240 c75 -55 95 -72 139 -111 l45 -42 -79 -81 c-44 -45
-82 -84 -84 -86 -2 -2 27 -35 63 -74 75 -77 74 -69 39 -206 -9 -33 -17 -69
-19 -80 -1 -11 -3 -20 -4 -20 -1 0 -3 -7 -5 -15 -8 -35 -27 -127 -30 -145 -4
-28 -23 -75 -30 -75 -4 0 -3 5 0 10 3 6 1 10 -4 10 -6 0 -11 12 -11 26 0 14
-4 34 -10 44 -5 10 -13 35 -16 56 -3 20 -10 49 -16 63 -5 14 -12 35 -14 46 -2
11 -11 47 -19 80 -9 33 -18 71 -21 85 -3 14 -17 63 -31 110 -14 47 -29 101
-33 120 -5 19 -20 76 -33 127 -18 67 -22 95 -13 101 6 4 31 18 56 31 25 14 54
30 65 38 26 17 26 17 65 -12z m581 8 c13 -10 47 -29 74 -42 28 -14 51 -26 52
-26 3 -1 -35 -148 -72 -280 -28 -103 -56 -209 -61 -235 -3 -14 -12 -50 -22
-80 -9 -30 -16 -57 -17 -60 0 -3 -13 -51 -29 -107 -27 -96 -50 -132 -52 -80
-1 22 -3 32 -23 117 -23 99 -50 227 -56 260 -3 19 -8 42 -11 51 -3 10 13 32
44 60 27 25 56 56 65 70 l17 26 -75 75 c-41 41 -75 81 -75 89 0 8 33 41 72 74
39 33 83 70 97 82 32 27 42 28 72 6z m-900 -50 c0 -10 2 -28 5 -40 4 -21 -8
-29 -38 -24 -5 0 -8 -3 -8 -8 0 -5 -11 -12 -25 -15 -14 -4 -56 -20 -93 -37
-140 -65 -172 -78 -175 -71 -3 4 -7 20 -11 35 -7 30 -26 19 201 123 29 13 64
26 78 30 14 3 28 10 31 15 9 16 34 10 35 -8z m1240 -15 c30 -12 58 -25 64 -30
5 -4 15 -8 22 -8 7 0 35 -9 61 -21 26 -12 56 -24 67 -29 90 -34 145 -56 172
-67 18 -7 36 -14 40 -15 7 -1 101 -40 178 -73 49 -21 145 -65 233 -107 81 -38
83 -40 62 -55 -25 -17 -87 -20 -103 -4 -6 6 -17 11 -24 11 -7 0 -56 20 -109
45 -52 25 -97 45 -99 45 -4 0 -74 32 -221 101 -34 15 -81 31 -105 35 -24 4
-84 26 -134 49 -49 24 -101 46 -115 50 -14 4 -39 16 -56 26 -25 15 -30 24 -26
44 5 31 23 32 93 3z m-624 -214 c3 -8 -92 -54 -113 -54 -9 0 -3 23 14 46 14
19 24 24 56 22 22 -2 41 -8 43 -14z m898 -95 c5 -5 1 -9 -13 -10 -60 -4 -77
-17 -124 -97 -25 -42 -56 -98 -68 -124 -12 -26 -28 -52 -36 -59 -8 -6 -14 -15
-14 -20 0 -9 224 -121 268 -134 12 -3 22 -11 22 -16 0 -5 9 -9 19 -9 11 0 23
-5 26 -10 4 -6 10 -8 15 -5 4 3 13 -2 20 -10 7 -8 18 -15 25 -15 15 0 75 -29
95 -46 8 -7 17 -12 20 -11 3 1 23 -8 44 -21 25 -15 36 -26 29 -33 -10 -10 -38
0 -158 56 -137 65 -190 88 -197 87 -5 -1 -8 2 -8 8 0 6 -3 9 -7 8 -5 -1 -36
12 -70 29 -35 18 -63 29 -63 25 0 -4 -4 -2 -8 3 -18 25 -122 59 -107 35 3 -5
2 -10 -4 -10 -5 0 -20 -17 -32 -37 -13 -21 -26 -40 -29 -43 -11 -10 -70 -103
-82 -131 -7 -16 -16 -29 -20 -29 -5 0 -8 -5 -8 -11 0 -5 -19 -38 -42 -72 -24
-34 -50 -80 -59 -101 -11 -27 -18 -35 -24 -26 -22 35 2 106 52 158 7 7 13 18
13 23 0 7 65 109 98 154 4 6 16 29 27 52 11 24 23 43 28 43 4 0 7 7 7 15 0 8
5 15 10 15 6 0 10 4 10 9 0 6 34 62 75 125 41 63 75 118 75 121 0 18 79 116
100 124 28 10 80 5 95 -10z m-2175 -11 c0 -7 3 -31 7 -52 4 -28 3 -37 -5 -32
-7 4 -12 2 -12 -3 0 -6 -3 -10 -8 -8 -16 5 -69 -49 -134 -138 -4 -5 -19 -23
-33 -40 l-25 -30 6 30 c6 29 53 135 64 145 3 3 18 23 35 45 32 44 85 95 97 95
5 0 8 -6 8 -12z m1244 -268 c-3 -127 -3 -127 -24 -133 -13 -3 -20 0 -20 9 0 8
-4 14 -9 14 -6 0 -8 10 -5 23 14 74 18 94 20 112 1 11 3 21 4 23 2 1 3 5 4 10
1 4 6 21 10 37 l9 30 6 -25 c3 -14 6 -59 5 -100z m-788 -127 c17 -23 18 -54 1
-77 -12 -17 -14 -16 -25 8 -14 31 -28 32 -142 6 -76 -17 -87 -17 -107 -4 -13
8 -23 18 -23 23 0 5 26 17 58 26 31 9 65 20 75 24 10 3 48 8 84 9 53 3 67 0
79 -15z m35 -182 c10 -12 14 -31 11 -51 l-4 -31 -24 22 -24 22 -102 -21 c-124
-27 -130 -27 -145 -4 -15 26 -4 40 37 47 19 3 50 10 68 15 17 4 32 6 32 3 0
-3 7 0 15 7 8 7 15 10 15 7 0 -3 12 -2 28 3 38 11 74 4 93 -19z m43 -208 c4
-13 4 -33 1 -43 -6 -18 -7 -18 -26 1 -15 15 -28 19 -47 14 -15 -3 -40 -8 -57
-11 -16 -3 -55 -11 -85 -19 -54 -14 -56 -14 -79 10 l-24 24 24 11 c14 6 72 22
130 34 118 25 153 21 163 -21z"/>
</g>
</svg>
